<svg width="39" height="38" viewBox="0 0 39 38" fill="none" xmlns="http://www.w3.org/2000/svg">
<path fill-rule="evenodd" clip-rule="evenodd" d="M19.338 0C8.64457 0 0 8.7083 0 19.4816C0 28.0934 5.53887 35.383 13.2228 37.963C14.1834 38.157 14.5353 37.5438 14.5353 37.0281C14.5353 36.5764 14.5037 35.0283 14.5037 33.4153C9.12432 34.5767 8.00411 31.093 8.00411 31.093C7.13962 28.8352 5.8587 28.2549 5.8587 28.2549C4.09805 27.0614 5.98695 27.0614 5.98695 27.0614C7.93999 27.1905 8.9648 29.0612 8.9648 29.0612C10.6934 32.0283 13.4789 31.19 14.5995 30.6738C14.7594 29.4158 15.272 28.545 15.8162 28.0613C11.5258 27.6097 7.01176 25.9325 7.01176 18.4493C7.01176 16.3205 7.77968 14.5789 8.99646 13.2243C8.80448 12.7406 8.13197 10.7405 9.18884 8.06349C9.18884 8.06349 10.8216 7.54732 14.5033 10.0632C16.0795 9.63679 17.7051 9.41985 19.338 9.41802C20.9708 9.41802 22.6352 9.64404 24.1723 10.0632C27.8543 7.54732 29.4871 8.06349 29.4871 8.06349C30.544 10.7405 29.871 12.7406 29.6791 13.2243C30.9279 14.5789 31.6642 16.3205 31.6642 18.4493C31.6642 25.9325 27.1501 27.5772 22.8276 28.0613C23.5322 28.674 24.1402 29.835 24.1402 31.6737C24.1402 34.2861 24.1085 36.3829 24.1085 37.0277C24.1085 37.5438 24.4608 38.157 25.4211 37.9634C33.105 35.3826 38.6439 28.0934 38.6439 19.4816C38.6755 8.7083 29.9993 0 19.338 0Z" fill="#24292F"/>
</svg>
