<svg width="175" height="63" viewBox="0 0 175 63" fill="none" xmlns="http://www.w3.org/2000/svg">
<path d="M11.2061 46.3877C12.736 45.639 14.3555 45.2646 16.0645 45.2646C17.7897 45.2646 19.3197 45.4274 20.6543 45.7529C22.0052 46.0622 23.2178 46.5586 24.292 47.2422C26.7008 48.7721 27.9053 50.9124 27.9053 53.6631C27.9053 56.5277 26.5381 58.8307 23.8037 60.5723C21.3786 62.1022 18.4652 62.8672 15.0635 62.8672C11.5967 62.8672 8.70768 62.1185 6.39648 60.6211C3.90625 58.9935 2.66113 56.7799 2.66113 53.9805C2.66113 50.5788 4.45964 47.291 8.05664 44.1172C9.45638 42.8965 11.0026 41.7979 12.6953 40.8213C10.0423 40.5771 7.77995 39.6413 5.9082 38.0137C3.80859 36.1745 2.75879 33.8877 2.75879 31.1533C2.75879 28.012 3.9388 25.4648 6.29883 23.5117C8.46354 21.7376 11.0433 20.8506 14.0381 20.8506C17.2607 20.8506 19.7917 21.7214 21.6309 23.4629C22.2005 24 22.6562 24.6104 22.998 25.2939C22.998 23.7965 22.8027 22.2503 22.4121 20.6553C22.0378 19.0439 21.8506 18.0837 21.8506 17.7744C21.8506 17.4652 21.9076 17.221 22.0215 17.042C22.1517 16.8467 22.2982 16.7002 22.4609 16.6025C22.7051 16.4561 22.9818 16.3828 23.291 16.3828H25.3906C26.7415 16.3828 27.417 18.2627 27.417 22.0225C27.417 25.0335 26.8148 27.8086 25.6104 30.3477C25.6429 30.7057 25.6592 31.1777 25.6592 31.7637C25.6592 32.3496 25.529 33.0332 25.2686 33.8145C25.0081 34.5957 24.6582 35.3281 24.2188 36.0117C23.7956 36.679 23.2992 37.2975 22.7295 37.8672C22.1761 38.4368 21.582 38.9658 20.9473 39.4541C20.3288 39.9424 19.7021 40.39 19.0674 40.7969C15.5029 43.0592 13.3708 44.4753 12.6709 45.0449C11.971 45.5983 11.4827 46.0459 11.2061 46.3877ZM10.083 35.0596C10.6364 35.5316 11.2793 35.8978 12.0117 36.1582C12.7604 36.4023 13.5498 36.5244 14.3799 36.5244C15.2262 36.5244 15.9993 36.4023 16.6992 36.1582C17.3991 35.8978 18.0176 35.5234 18.5547 35.0352C19.694 34.0098 20.2637 32.6914 20.2637 31.0801C20.2637 29.4362 19.6289 28.1423 18.3594 27.1982C17.2363 26.3682 15.8529 25.9531 14.209 25.9531C11.6048 25.9531 9.80632 26.9215 8.81348 28.8584C8.48796 29.4932 8.3252 30.2337 8.3252 31.0801C8.3252 31.9102 8.47982 32.6589 8.78906 33.3262C9.09831 33.9935 9.52962 34.5713 10.083 35.0596ZM8.91113 50.9043C8.30892 51.5879 8.00781 52.3447 8.00781 53.1748C8.00781 54.0049 8.21126 54.7129 8.61816 55.2988C9.02507 55.8848 9.56217 56.373 10.2295 56.7637C11.5153 57.4961 13.1266 57.8623 15.0635 57.8623C18.1234 57.8623 20.2555 57.1055 21.46 55.5918C21.8506 55.0872 22.0459 54.4525 22.0459 53.6875C22.0459 52.9225 21.8018 52.2715 21.3135 51.7344C20.8415 51.1973 20.2474 50.7822 19.5312 50.4893C18.3431 50.001 16.7969 49.7568 14.8926 49.7568C11.9629 49.7568 9.96908 50.1393 8.91113 50.9043ZM32.0801 35.1328C32.0801 33.0169 32.43 31.0801 33.1299 29.3223C33.846 27.5482 34.8226 26.0345 36.0596 24.7812C38.6475 22.1608 41.9108 20.8506 45.8496 20.8506C50.2604 20.8506 53.6784 22.1608 56.1035 24.7812C58.4473 27.304 59.6191 30.7708 59.6191 35.1816C59.6191 39.446 58.2926 42.929 55.6396 45.6309C53.0518 48.2839 49.7884 49.6104 45.8496 49.6104C41.6992 49.6104 38.3626 48.2513 35.8398 45.5332C33.3333 42.8802 32.0801 39.4134 32.0801 35.1328ZM39.917 28.9316C39.3148 29.8268 38.8753 30.8522 38.5986 32.0078C38.3219 33.1471 38.1836 34.3109 38.1836 35.499C38.1836 36.6709 38.3382 37.8021 38.6475 38.8926C38.973 39.9668 39.4531 40.9271 40.0879 41.7734C41.4876 43.6289 43.4408 44.5566 45.9473 44.5566C48.5026 44.5566 50.4395 43.6452 51.7578 41.8223C52.9297 40.2272 53.5156 38.0544 53.5156 35.3037C53.5156 31.1859 52.1647 28.3457 49.4629 26.7832C48.4701 26.2135 47.2656 25.9287 45.8496 25.9287C44.4499 25.9287 43.2617 26.2054 42.2852 26.7588C41.3249 27.2959 40.5355 28.0202 39.917 28.9316ZM109.18 47.7793C109.18 48.5931 108.895 49 108.325 49H104.272C103.963 49 103.695 48.9023 103.467 48.707C103.239 48.5117 103.109 48.2676 103.076 47.9746L101.392 33.375C101.18 31.5358 101.017 29.721 100.903 27.9307C100.806 26.1403 100.692 24.2686 100.562 22.3154L100.317 18.8486C100.317 18.7835 100.293 18.751 100.244 18.751C100.212 18.751 100.187 18.7754 100.171 18.8242L99.0723 22.8281C98.8444 23.6419 98.5921 24.4557 98.3154 25.2695L90.6982 45.9971C90.6169 46.2412 90.4541 46.4691 90.21 46.6807C89.9658 46.8923 89.7217 46.998 89.4775 46.998H85.6445C85.14 46.998 84.7331 46.6725 84.4238 46.0215C78.776 32.7891 75.765 25.7171 75.3906 24.8057C75.0326 23.8779 74.7152 22.999 74.4385 22.1689L73.3398 18.7998C73.3236 18.751 73.291 18.7266 73.2422 18.7266C73.2096 18.7266 73.1852 18.7591 73.1689 18.8242V22.7793C73.1689 26.2298 73.0306 29.7536 72.7539 33.3506L71.6553 47.9746C71.6227 48.235 71.4681 48.471 71.1914 48.6826C70.931 48.8942 70.6543 49 70.3613 49H66.9922C66.6016 49 66.276 48.8291 66.0156 48.4873C65.7715 48.1455 65.6738 47.7305 65.7227 47.2422L68.6523 15.1133C68.7663 13.7624 68.929 12.9079 69.1406 12.5498C69.515 11.8988 70.1986 11.5732 71.1914 11.5732H73.8281C74.6257 11.5732 75.179 11.679 75.4883 11.8906C76.0579 12.265 76.5544 12.973 76.9775 14.0146L87.5 39.6494L96.7041 13.9902C97.2412 12.3789 98.1527 11.5732 99.4385 11.5732H102.197C103.63 11.5732 104.468 12.2324 104.712 13.5508C104.777 13.974 104.842 14.4297 104.907 14.918L109.131 47.2666C109.163 47.4294 109.18 47.6003 109.18 47.7793ZM138.94 47.7061C138.94 48.5687 138.517 49 137.671 49H135.303C134.668 49 134.285 48.8779 134.155 48.6338C134.025 48.3734 133.952 48.1455 133.936 47.9502C133.919 47.7386 133.887 47.4863 133.838 47.1934C133.74 46.3958 133.602 45.5332 133.423 44.6055C132.153 46.9329 130.16 48.471 127.441 49.2197C126.481 49.4801 125.423 49.6104 124.268 49.6104C123.112 49.6104 121.956 49.415 120.801 49.0244C119.645 48.6501 118.62 48.0885 117.725 47.3398C115.706 45.6471 114.697 43.4255 114.697 40.6748C114.697 37.6637 115.804 35.3607 118.018 33.7656C119.84 32.4798 122.184 31.8369 125.049 31.8369C127.913 31.8369 130.339 32.6751 132.324 34.3516C132.373 33.7982 132.397 33.1064 132.397 32.2764C132.397 31.4463 132.235 30.6162 131.909 29.7861C131.584 28.9561 131.12 28.2643 130.518 27.7109C129.281 26.6204 127.555 26.0752 125.342 26.0752C123.356 26.0752 121.338 26.6204 119.287 27.7109C118.896 27.9225 118.555 28.0283 118.262 28.0283C117.822 28.0283 117.399 27.597 116.992 26.7344C116.553 25.8555 116.333 25.2207 116.333 24.8301C116.333 24.1139 116.87 23.4222 117.944 22.7549C119.995 21.4854 122.738 20.8506 126.172 20.8506C129.297 20.8506 131.885 21.7051 133.936 23.4141C136.361 25.4648 137.573 28.362 137.573 32.1055C137.573 33.7656 137.305 35.8571 136.768 38.3799C138.151 42.3187 138.875 45.4274 138.94 47.7061ZM122.583 37.3545C121.916 37.8428 121.436 38.3311 121.143 38.8193C120.866 39.3076 120.728 39.8854 120.728 40.5527C120.728 41.2038 120.841 41.7897 121.069 42.3105C121.313 42.8151 121.647 43.2383 122.07 43.5801C122.965 44.2799 123.966 44.6299 125.073 44.6299C126.196 44.6299 127.116 44.4997 127.832 44.2393C128.548 43.9788 129.167 43.6452 129.688 43.2383C130.811 42.3594 131.372 41.4316 131.372 40.4551C131.274 39.2344 130.599 38.2741 129.346 37.5742C128.223 36.9232 126.896 36.5977 125.366 36.5977C124.178 36.5977 123.25 36.8499 122.583 37.3545ZM152.1 44.7764C152.262 46.404 152.344 48.4385 152.344 50.8799V60.9629C152.344 62.1673 151.864 62.7695 150.903 62.7695H147.876C146.851 62.7695 146.338 62.1348 146.338 60.8652V33.8389C146.338 29.2653 146.094 25.9287 145.605 23.8291C145.557 23.6175 145.532 23.3245 145.532 22.9502C145.532 22.5758 145.679 22.234 145.972 21.9248C146.281 21.6156 146.672 21.4609 147.144 21.4609H148.633C149.528 21.4609 150.163 21.8516 150.537 22.6328C150.977 23.5443 151.31 24.7243 151.538 26.1729C152.677 24.1872 154.232 22.7386 156.201 21.8271C157.601 21.1761 159.188 20.8506 160.962 20.8506C162.752 20.8506 164.347 21.2005 165.747 21.9004C167.147 22.584 168.311 23.528 169.238 24.7324C171.077 27.125 171.997 30.3314 171.997 34.3516C171.997 38.5508 170.964 42.099 168.896 44.9961C166.715 48.0723 163.859 49.6104 160.327 49.6104C156.649 49.6104 153.906 47.999 152.1 44.7764ZM151.782 36.1094C151.782 38.4531 152.563 40.4714 154.126 42.1641C155.607 43.7591 157.284 44.5566 159.155 44.5566C161.515 44.5566 163.265 43.4092 164.404 41.1143C165.316 39.2913 165.771 36.9883 165.771 34.2051C165.771 31.959 165.234 30.0547 164.16 28.4922C163.005 26.7995 161.466 25.9531 159.546 25.9531C157.381 25.9531 155.534 26.8483 154.004 28.6387C152.523 30.3965 151.782 32.4391 151.782 34.7666V36.1094Z" fill="#F9F9FA"/>
<path fill-rule="evenodd" clip-rule="evenodd" d="M29 35.8235C29 24.7882 37.7765 19 45.4706 19C53.1647 19 61.9412 24.7882 61.9412 35.8235C61.9412 43.1647 56.4588 50.9059 45.4706 59C34.4824 50.9059 29 43.1647 29 35.8235Z" fill="#F9F9FA"/>
<circle cx="45" cy="35" r="6" fill="#538E95"/>
</svg>
