<svg width="119" height="43" viewBox="0 0 119 43" fill="none" xmlns="http://www.w3.org/2000/svg">
<path d="M7.62012 31.2236C8.66048 30.7145 9.76172 30.46 10.9238 30.46C12.097 30.46 13.1374 30.5706 14.0449 30.792C14.9635 31.0023 15.7881 31.3398 16.5186 31.8047C18.1566 32.8451 18.9756 34.3005 18.9756 36.1709C18.9756 38.1188 18.0459 39.6849 16.1865 40.8691C14.5374 41.9095 12.5563 42.4297 10.2432 42.4297C7.88574 42.4297 5.92122 41.9206 4.34961 40.9023C2.65625 39.7956 1.80957 38.2904 1.80957 36.3867C1.80957 34.0736 3.03255 31.8379 5.47852 29.6797C6.43034 28.8496 7.48177 28.1025 8.63281 27.4385C6.82878 27.2725 5.29036 26.6361 4.01758 25.5293C2.58984 24.2786 1.87598 22.7236 1.87598 20.8643C1.87598 18.7282 2.67839 16.9961 4.2832 15.668C5.75521 14.4616 7.50944 13.8584 9.5459 13.8584C11.7373 13.8584 13.4583 14.4505 14.709 15.6348C15.0964 16 15.4062 16.415 15.6387 16.8799C15.6387 15.8617 15.5059 14.8102 15.2402 13.7256C14.9857 12.6299 14.8584 11.9769 14.8584 11.7666C14.8584 11.5563 14.8971 11.3903 14.9746 11.2686C15.0632 11.1357 15.1628 11.0361 15.2734 10.9697C15.4395 10.8701 15.6276 10.8203 15.8379 10.8203H17.2656C18.1842 10.8203 18.6436 12.0986 18.6436 14.6553C18.6436 16.7028 18.234 18.5898 17.415 20.3164C17.4372 20.5599 17.4482 20.8809 17.4482 21.2793C17.4482 21.6777 17.3597 22.1426 17.1826 22.6738C17.0055 23.2051 16.7676 23.7031 16.4688 24.168C16.181 24.6217 15.8434 25.0423 15.4561 25.4297C15.0798 25.8171 14.6758 26.1768 14.2441 26.5088C13.8236 26.8408 13.3975 27.1452 12.9658 27.4219C10.542 28.9603 9.09212 29.9232 8.61621 30.3105C8.1403 30.6868 7.80827 30.9912 7.62012 31.2236ZM6.85645 23.5205C7.23275 23.8415 7.66992 24.0905 8.16797 24.2676C8.67708 24.4336 9.21387 24.5166 9.77832 24.5166C10.3538 24.5166 10.8796 24.4336 11.3555 24.2676C11.8314 24.0905 12.252 23.8359 12.6172 23.5039C13.3919 22.8066 13.7793 21.9102 13.7793 20.8145C13.7793 19.6966 13.3477 18.8167 12.4844 18.1748C11.7207 17.6104 10.7799 17.3281 9.66211 17.3281C7.89128 17.3281 6.66829 17.9867 5.99316 19.3037C5.77181 19.7354 5.66113 20.2389 5.66113 20.8145C5.66113 21.3789 5.76628 21.888 5.97656 22.3418C6.18685 22.7956 6.48014 23.1885 6.85645 23.5205ZM6.05957 34.2949C5.65007 34.7598 5.44531 35.2744 5.44531 35.8389C5.44531 36.4033 5.58366 36.8848 5.86035 37.2832C6.13704 37.6816 6.50228 38.0137 6.95605 38.2793C7.8304 38.7773 8.92611 39.0264 10.2432 39.0264C12.3239 39.0264 13.7738 38.5117 14.5928 37.4824C14.8584 37.1393 14.9912 36.7077 14.9912 36.1875C14.9912 35.6673 14.8252 35.2246 14.4932 34.8594C14.1722 34.4941 13.7682 34.2119 13.2812 34.0127C12.4733 33.6807 11.4219 33.5146 10.127 33.5146C8.13477 33.5146 6.77897 33.7747 6.05957 34.2949ZM21.8145 23.5703C21.8145 22.1315 22.0524 20.8145 22.5283 19.6191C23.0153 18.4128 23.6794 17.3835 24.5205 16.5312C26.2803 14.7493 28.4993 13.8584 31.1777 13.8584C34.1771 13.8584 36.5013 14.7493 38.1504 16.5312C39.7441 18.2467 40.541 20.6042 40.541 23.6035C40.541 26.5033 39.639 28.8717 37.835 30.709C36.0752 32.513 33.8561 33.415 31.1777 33.415C28.3555 33.415 26.0866 32.4909 24.3711 30.6426C22.6667 28.8385 21.8145 26.4811 21.8145 23.5703ZM27.1436 19.3535C26.734 19.9622 26.4352 20.6595 26.2471 21.4453C26.0589 22.2201 25.9648 23.0114 25.9648 23.8193C25.9648 24.6162 26.07 25.3854 26.2803 26.127C26.5016 26.8574 26.8281 27.5104 27.2598 28.0859C28.2116 29.3477 29.5397 29.9785 31.2441 29.9785C32.9818 29.9785 34.2988 29.3587 35.1953 28.1191C35.9922 27.0345 36.3906 25.557 36.3906 23.6865C36.3906 20.8864 35.472 18.9551 33.6348 17.8926C32.9596 17.5052 32.1406 17.3115 31.1777 17.3115C30.2259 17.3115 29.418 17.4997 28.7539 17.876C28.1009 18.2412 27.5641 18.7337 27.1436 19.3535ZM74.2422 32.1699C74.2422 32.7233 74.0485 33 73.6611 33H70.9053C70.695 33 70.5124 32.9336 70.3574 32.8008C70.2025 32.668 70.1139 32.502 70.0918 32.3027L68.9463 22.375C68.8024 21.1243 68.6917 19.8903 68.6143 18.6729C68.5479 17.4554 68.4704 16.1826 68.3818 14.8545L68.2158 12.4971C68.2158 12.4528 68.1992 12.4307 68.166 12.4307C68.1439 12.4307 68.1273 12.4473 68.1162 12.4805L67.3691 15.2031C67.2142 15.7565 67.0426 16.3099 66.8545 16.8633L61.6748 30.958C61.6195 31.124 61.5088 31.279 61.3428 31.4229C61.1768 31.5667 61.0107 31.6387 60.8447 31.6387H58.2383C57.8952 31.6387 57.6185 31.4173 57.4082 30.9746C53.5677 21.9766 51.5202 17.1676 51.2656 16.5479C51.0221 15.917 50.8063 15.3193 50.6182 14.7549L49.8711 12.4639C49.86 12.4307 49.8379 12.4141 49.8047 12.4141C49.7826 12.4141 49.766 12.4362 49.7549 12.4805V15.1699C49.7549 17.5163 49.6608 19.9124 49.4727 22.3584L48.7256 32.3027C48.7035 32.4798 48.5983 32.6403 48.4102 32.7842C48.2331 32.9281 48.0449 33 47.8457 33H45.5547C45.2891 33 45.0677 32.8838 44.8906 32.6514C44.7246 32.4189 44.6582 32.1367 44.6914 31.8047L46.6836 9.95703C46.7611 9.03841 46.8717 8.45736 47.0156 8.21387C47.2702 7.77116 47.735 7.5498 48.4102 7.5498H50.2031C50.7454 7.5498 51.1217 7.62174 51.332 7.76562C51.7194 8.02018 52.057 8.50163 52.3447 9.20996L59.5 26.6416L65.7588 9.19336C66.124 8.09766 66.7438 7.5498 67.6182 7.5498H69.4941C70.4681 7.5498 71.0381 7.99805 71.2041 8.89453C71.2484 9.18229 71.2926 9.49219 71.3369 9.82422L74.209 31.8213C74.2311 31.932 74.2422 32.0482 74.2422 32.1699ZM94.4795 32.1201C94.4795 32.7067 94.1917 33 93.6162 33H92.0059C91.5742 33 91.3141 32.917 91.2256 32.751C91.137 32.5739 91.0872 32.4189 91.0762 32.2861C91.0651 32.1423 91.043 31.9707 91.0098 31.7715C90.9434 31.2292 90.8493 30.6426 90.7275 30.0117C89.8643 31.5944 88.5085 32.6403 86.6602 33.1494C86.0072 33.3265 85.2878 33.415 84.502 33.415C83.7161 33.415 82.9303 33.2822 82.1445 33.0166C81.3587 32.762 80.6615 32.3802 80.0527 31.8711C78.6803 30.7201 77.9941 29.2093 77.9941 27.3389C77.9941 25.2913 78.7467 23.7253 80.252 22.6406C81.4915 21.7663 83.0853 21.3291 85.0332 21.3291C86.9811 21.3291 88.6302 21.8991 89.9805 23.0391C90.0137 22.6628 90.0303 22.1924 90.0303 21.6279C90.0303 21.0635 89.9196 20.499 89.6982 19.9346C89.4769 19.3701 89.1615 18.8997 88.752 18.5234C87.9108 17.7819 86.7376 17.4111 85.2324 17.4111C83.8822 17.4111 82.5098 17.7819 81.1152 18.5234C80.8496 18.6673 80.6172 18.7393 80.418 18.7393C80.1191 18.7393 79.8314 18.446 79.5547 17.8594C79.2559 17.2617 79.1064 16.8301 79.1064 16.5645C79.1064 16.0775 79.4717 15.6071 80.2021 15.1533C81.5967 14.29 83.4616 13.8584 85.7969 13.8584C87.9219 13.8584 89.6816 14.4395 91.0762 15.6016C92.7253 16.9961 93.5498 18.9661 93.5498 21.5117C93.5498 22.6406 93.3672 24.0628 93.002 25.7783C93.9427 28.4567 94.4352 30.5706 94.4795 32.1201ZM83.3564 25.0811C82.9027 25.4131 82.5762 25.7451 82.377 26.0771C82.1888 26.4092 82.0947 26.8021 82.0947 27.2559C82.0947 27.6986 82.1722 28.097 82.3271 28.4512C82.4932 28.7943 82.7201 29.082 83.0078 29.3145C83.6165 29.7904 84.2972 30.0283 85.0498 30.0283C85.8135 30.0283 86.4388 29.9398 86.9258 29.7627C87.4128 29.5856 87.8333 29.3587 88.1875 29.082C88.9512 28.4844 89.333 27.8535 89.333 27.1895C89.2666 26.3594 88.8073 25.7064 87.9551 25.2305C87.1914 24.7878 86.2894 24.5664 85.249 24.5664C84.4411 24.5664 83.8102 24.738 83.3564 25.0811ZM103.428 30.1279C103.538 31.2347 103.594 32.6182 103.594 34.2783V41.1348C103.594 41.9538 103.267 42.3633 102.614 42.3633H100.556C99.8584 42.3633 99.5098 41.9316 99.5098 41.0684V22.6904C99.5098 19.5804 99.3438 17.3115 99.0117 15.8838C98.9785 15.7399 98.9619 15.5407 98.9619 15.2861C98.9619 15.0316 99.0615 14.7992 99.2607 14.5889C99.471 14.3786 99.7367 14.2734 100.058 14.2734H101.07C101.679 14.2734 102.111 14.5391 102.365 15.0703C102.664 15.6901 102.891 16.4925 103.046 17.4775C103.821 16.1273 104.878 15.1423 106.217 14.5225C107.169 14.0798 108.248 13.8584 109.454 13.8584C110.672 13.8584 111.756 14.0964 112.708 14.5723C113.66 15.0371 114.451 15.679 115.082 16.498C116.333 18.125 116.958 20.3053 116.958 23.0391C116.958 25.8945 116.255 28.3073 114.85 30.2773C113.367 32.3691 111.424 33.415 109.022 33.415C106.521 33.415 104.656 32.3193 103.428 30.1279ZM103.212 24.2344C103.212 25.8281 103.743 27.2005 104.806 28.3516C105.813 29.4362 106.953 29.9785 108.226 29.9785C109.83 29.9785 111.02 29.1982 111.795 27.6377C112.415 26.3981 112.725 24.832 112.725 22.9395C112.725 21.4121 112.359 20.1172 111.629 19.0547C110.843 17.9036 109.797 17.3281 108.491 17.3281C107.019 17.3281 105.763 17.9368 104.723 19.1543C103.715 20.3496 103.212 21.7386 103.212 23.3213V24.2344Z" fill="#538E95"/>
<path fill-rule="evenodd" clip-rule="evenodd" d="M21.3333 23.3838C21.3333 16.9006 26.4894 13.5 31.0097 13.5C35.53 13.5 40.6862 16.9006 40.6862 23.3838C40.6862 27.6968 37.4653 32.2447 31.0097 37C24.5541 32.2447 21.3333 27.6968 21.3333 23.3838Z" fill="#538E95"/>
<circle cx="30.525" cy="22.525" r="3.525" fill="#FFFFFD"/>
</svg>
