<svg width="22" height="26" viewBox="0 0 22 26" fill="none" xmlns="http://www.w3.org/2000/svg">
<path d="M4.33333 19.5C4.33333 20.0958 4.82083 20.5833 5.41667 20.5833H6.5V24.375C6.5 25.2742 7.22583 26 8.125 26C9.02417 26 9.75 25.2742 9.75 24.375V20.5833H11.9167V24.375C11.9167 25.2742 12.6425 26 13.5417 26C14.4408 26 15.1667 25.2742 15.1667 24.375V20.5833H16.25C16.8458 20.5833 17.3333 20.0958 17.3333 19.5V8.66667H4.33333V19.5ZM1.625 8.66667C0.725833 8.66667 0 9.3925 0 10.2917V17.875C0 18.7742 0.725833 19.5 1.625 19.5C2.52417 19.5 3.25 18.7742 3.25 17.875V10.2917C3.25 9.3925 2.52417 8.66667 1.625 8.66667ZM20.0417 8.66667C19.1425 8.66667 18.4167 9.3925 18.4167 10.2917V17.875C18.4167 18.7742 19.1425 19.5 20.0417 19.5C20.9408 19.5 21.6667 18.7742 21.6667 17.875V10.2917C21.6667 9.3925 20.9408 8.66667 20.0417 8.66667ZM14.6575 2.34L16.0658 0.931667C16.2825 0.715 16.2825 0.379167 16.0658 0.1625C15.8492 -0.0541667 15.5133 -0.0541667 15.2967 0.1625L13.6933 1.76583C12.8375 1.3325 11.8625 1.08333 10.8333 1.08333C9.79333 1.08333 8.81833 1.3325 7.95167 1.76583L6.3375 0.1625C6.12083 -0.0541667 5.785 -0.0541667 5.56833 0.1625C5.35167 0.379167 5.35167 0.715 5.56833 0.931667L6.9875 2.35083C5.38417 3.53167 4.33333 5.4275 4.33333 7.58333H17.3333C17.3333 5.4275 16.2825 3.52083 14.6575 2.34ZM8.66667 5.41667H7.58333V4.33333H8.66667V5.41667ZM14.0833 5.41667H13V4.33333H14.0833V5.41667Z" fill="#FFFFFD"/>
</svg>
