<svg width="16" height="20" viewBox="0 0 21 25" fill="none" xmlns="http://www.w3.org/2000/svg">
<path d="M4.16667 18.75C4.16667 19.3229 4.63542 19.7917 5.20833 19.7917H6.25V23.4375C6.25 24.3021 6.94792 25 7.8125 25C8.67708 25 9.375 24.3021 9.375 23.4375V19.7917H11.4583V23.4375C11.4583 24.3021 12.1563 25 13.0208 25C13.8854 25 14.5833 24.3021 14.5833 23.4375V19.7917H15.625C16.1979 19.7917 16.6667 19.3229 16.6667 18.75V8.33333H4.16667V18.75ZM1.5625 8.33333C0.697917 8.33333 0 9.03125 0 9.89583V17.1875C0 18.0521 0.697917 18.75 1.5625 18.75C2.42708 18.75 3.125 18.0521 3.125 17.1875V9.89583C3.125 9.03125 2.42708 8.33333 1.5625 8.33333ZM19.2708 8.33333C18.4063 8.33333 17.7083 9.03125 17.7083 9.89583V17.1875C17.7083 18.0521 18.4063 18.75 19.2708 18.75C20.1354 18.75 20.8333 18.0521 20.8333 17.1875V9.89583C20.8333 9.03125 20.1354 8.33333 19.2708 8.33333ZM14.0938 2.25L15.4479 0.895833C15.6563 0.6875 15.6563 0.364583 15.4479 0.15625C15.2396 -0.0520833 14.9167 -0.0520833 14.7083 0.15625L13.1667 1.69792C12.3438 1.28125 11.4063 1.04167 10.4167 1.04167C9.41667 1.04167 8.47917 1.28125 7.64583 1.69792L6.09375 0.15625C5.88542 -0.0520833 5.5625 -0.0520833 5.35417 0.15625C5.14583 0.364583 5.14583 0.6875 5.35417 0.895833L6.71875 2.26042C5.17708 3.39583 4.16667 5.21875 4.16667 7.29167H16.6667C16.6667 5.21875 15.6563 3.38542 14.0938 2.25ZM8.33333 5.20833H7.29167V4.16667H8.33333V5.20833ZM13.5417 5.20833H12.5V4.16667H13.5417V5.20833Z" fill="#349A27"/>
</svg>
