<svg width="38" height="38" viewBox="0 0 38 38" fill="none" xmlns="http://www.w3.org/2000/svg">
<path d="M0 38L2.67108 28.2419C1.02283 25.3856 0.15675 22.1477 0.158333 18.8274C0.163083 8.44708 8.61017 0 18.9889 0C24.0255 0.00158333 28.7533 1.96333 32.3095 5.52267C35.8641 9.082 37.8211 13.813 37.8195 18.8448C37.8148 29.2268 29.3677 37.6738 18.9889 37.6738C15.8381 37.6723 12.7332 36.8822 9.98292 35.3812L0 38ZM10.4452 31.9723C13.0989 33.5477 15.6322 34.4913 18.9826 34.4929C27.6086 34.4929 34.6354 27.4724 34.6402 18.8417C34.6433 10.1935 27.6498 3.1825 18.9953 3.17933C10.3629 3.17933 3.34083 10.1998 3.33767 18.829C3.33608 22.3519 4.36842 24.9897 6.10217 27.7495L4.52042 33.5255L10.4452 31.9723ZM28.4747 23.3209C28.3575 23.1246 28.044 23.0074 27.5722 22.7715C27.1019 22.5356 24.7887 21.3972 24.3564 21.2404C23.9257 21.0837 23.6123 21.0045 23.2972 21.4763C22.9837 21.9466 22.0812 23.0074 21.8073 23.3209C21.5333 23.6344 21.2578 23.674 20.7876 23.4381C20.3173 23.2022 18.8005 22.7066 17.0034 21.1027C15.6053 19.855 14.6601 18.3144 14.3862 17.8426C14.1122 17.3723 14.3577 17.1174 14.592 16.8831C14.8042 16.6725 15.0622 16.3337 15.2982 16.0582C15.5372 15.7858 15.6148 15.5895 15.7732 15.2744C15.9299 14.9609 15.8523 14.6854 15.7336 14.4495C15.6148 14.2152 14.6743 11.8988 14.2833 10.9567C13.9001 10.0399 13.5122 10.1634 13.224 10.1492L12.3215 10.1333C12.008 10.1333 11.4982 10.2505 11.0675 10.7223C10.6368 11.1942 9.42083 12.331 9.42083 14.6474C9.42083 16.9638 11.1071 19.2011 11.3414 19.5146C11.5773 19.8281 14.6585 24.5813 19.3784 26.619C20.501 27.1035 21.3782 27.3933 22.0606 27.6102C23.1879 27.968 24.2139 27.9173 25.0246 27.797C25.9287 27.6624 27.8081 26.6586 28.2008 25.5598C28.5934 24.4593 28.5934 23.5173 28.4747 23.3209Z" fill="#24292F"/>
</svg>
